<?xml version="1.0" encoding="UTF-8"?>
<svg version="1.1" xmlns="http://www.w3.org/2000/svg" width="192" height="192">
<path d="M0 0 C63.36 0 126.72 0 192 0 C192 63.36 192 126.72 192 192 C128.64 192 65.28 192 0 192 C0 128.64 0 65.28 0 0 Z " fill="#FBFBFB" transform="translate(0,0)"/>
<path d="M0 0 C25.08 0 50.16 0 76 0 C76 63.36 76 126.72 76 192 C43.66 192 11.32 192 -22 192 C-22.33 184.41 -22.66 176.82 -23 169 C-16.25346653 166.36005212 -9.5034928 164.25423946 -2.5 162.4375 C-1.67781982 162.22407959 -0.85563965 162.01065918 -0.00854492 161.79077148 C3.51106775 160.88337958 7.03358269 159.9917148 10.5625 159.12109375 C12.0165625 158.75177734 12.0165625 158.75177734 13.5 158.375 C14.3146875 158.17648438 15.129375 157.97796875 15.96875 157.7734375 C18.26219778 156.90016315 19.33019478 155.75717875 21 154 C21.66 154 22.32 154 23 154 C23 153.34 23 152.68 23 152 C26.6441774 149.5705484 28.71241272 149.83820425 33 150 C33.20625 149.443125 33.4125 148.88625 33.625 148.3125 C35.89915549 144.48778396 39.14482776 141.63466419 43.375 140.1875 C43.91125 140.125625 44.4475 140.06375 45 140 C45.020625 139.319375 45.04125 138.63875 45.0625 137.9375 C47.01854801 131.80854955 52.69755945 128.18671797 57.75 124.5625 C62.21686914 121.13285302 63.73809519 118.4056064 65 113 C65.41185547 111.49179688 65.41185547 111.49179688 65.83203125 109.953125 C68.46054767 99.72711592 69.48457449 90.81758198 65 81 C64.443125 80.2575 63.88625 79.515 63.3125 78.75 C61.57560952 76.43414602 61.76488712 74.82135457 62 72 C61.13375 71.62875 61.13375 71.62875 60.25 71.25 C58 70 58 70 56.5 67.96875 C52.60223476 64.89925987 48.57839199 65.32438699 43.75 65.25 C42.81414062 65.22035156 41.87828125 65.19070312 40.9140625 65.16015625 C38.60928908 65.08960196 36.30551832 65.03683748 34 65 C33.89905029 65.62165039 33.79810059 66.24330078 33.6940918 66.88378906 C33 69 33 69 29.89453125 70.859375 C28.53961327 71.50187164 27.17843179 72.13126337 25.8125 72.75 C24.33579679 73.45532052 22.86055777 74.16371387 21.38671875 74.875 C20.64470215 75.23078125 19.90268555 75.5865625 19.13818359 75.953125 C4.4721033 83.13377724 -9.92508845 92.43757371 -22.46875 102.890625 C-24 104 -24 104 -26 104 C-26.10957031 103.34773438 -26.21914062 102.69546875 -26.33203125 102.0234375 C-27.36887267 96.25504933 -27.36887267 96.25504933 -29.75 90.9375 C-31.34887824 87.18013613 -30.61706647 85.45255778 -29.53515625 81.63671875 C-28.68190616 77.43274934 -29.06291034 73.27820484 -29.3203125 69.015625 C-28.90962717 65.14917289 -27.72709009 63.72709009 -25 61 C-22.52734375 59.26953125 -22.52734375 59.26953125 -19.9375 57.8125 C-18.65166016 57.07966797 -18.65166016 57.07966797 -17.33984375 56.33203125 C-16.56769531 55.89246094 -15.79554687 55.45289063 -15 55 C-14.01 54.34 -13.02 53.68 -12 53 C-11.01 53 -10.02 53 -9 53 C-9 52.34 -9 51.68 -9 51 C-3.25 50.875 -3.25 50.875 -1 52 C3.86382307 52.52512072 7.73703367 52.85112948 11.875 50.0625 C12.926875 49.0415625 12.926875 49.0415625 14 48 C14.93199219 47.84337891 14.93199219 47.84337891 15.8828125 47.68359375 C19.01964394 46.67077917 20.08809121 44.62887458 22 42 C24.61356877 38.40634294 25.74753448 36.99224196 30 36 C31.06724991 34.11055175 31.06724991 34.11055175 32 32 C33.69140625 30.40234375 33.69140625 30.40234375 35.5625 28.9375 C38.19437653 26.87467786 38.90432539 26.28702382 40 23 C33.85050766 24.85490905 33.85050766 24.85490905 28.1875 27.8125 C27.465625 28.204375 26.74375 28.59625 26 29 C24.65599973 28.35510815 23.32411038 27.68480211 22 27 C20.42237287 26.73437911 18.83794013 26.50719967 17.25 26.3125 C11.4336358 25.22998613 7.83379848 22.41816499 4 18 C1 13 1 13 0 0 Z " fill="#010101" transform="translate(116,0)"/>
<path d="M0 0 C31.02 0 62.04 0 94 0 C92 10 92 10 90.875 12.625 C88.91022822 17.95795197 90.03178422 23.55475444 91 29 C89.57797282 29.91416033 88.15594051 30.8283127 86.73388672 31.74243164 C85.47761749 32.55008043 84.22143484 33.35786389 82.96533203 34.16577148 C79.77052084 36.22037242 76.57461104 38.27319294 73.375 40.3203125 C69.91075856 42.53777335 66.4536636 44.76610667 63 47 C61.94554687 47.680625 60.89109375 48.36125 59.8046875 49.0625 C50.14468547 55.38720721 41.45500998 62.42188938 33.03125 70.3125 C31 72 31 72 29 72 C29 72.66 29 73.32 29 74 C27.86818646 75.16611092 26.72903383 76.32578894 25.55859375 77.453125 C20.03382187 82.93635724 13.49052031 89.52843907 11 97 C12.32 97 13.64 97 15 97 C15.03440186 98.19375244 15.06880371 99.38750488 15.10424805 100.61743164 C15.24004038 105.11934652 15.40579483 109.61977647 15.57983398 114.12036133 C15.65061851 116.05465678 15.71367143 117.98925343 15.76831055 119.92407227 C16.19828071 134.8800614 17.17895486 148.93414454 27 161 C27 161.66 27 162.32 27 163 C27.66 163 28.32 163 29 163 C29 163.66 29 164.32 29 165 C29.53496094 165.26167969 30.06992187 165.52335938 30.62109375 165.79296875 C32.36134106 166.67595138 34.08019369 167.60145427 35.78515625 168.55078125 C45.49521134 173.77036986 55.28901875 176.52208643 66 179 C67.15136852 183.60547409 67 186.93994143 67 192 C44.89 192 22.78 192 0 192 C0 128.64 0 65.28 0 0 Z " fill="#010101" transform="translate(0,0)"/>
<path d="M0 0 C5.29760532 0.91872885 8.10972687 3.56492664 11.46875 7.6015625 C11.96375 8.0965625 11.96375 8.0965625 12.46875 8.6015625 C13.46031709 14.80777379 13.7143685 20.94861884 13.78125 27.2265625 C13.82475586 28.59941406 13.82475586 28.59941406 13.86914062 30 C13.93379279 36.88296852 12.35693556 40.26167019 7.8203125 45.5078125 C-4.98721428 57.33014491 -29.86734015 64.13039319 -47.15625 64.7265625 C-47.94 64.6853125 -48.72375 64.6440625 -49.53125 64.6015625 C-50.79676036 56.73731956 -51.75743937 48.94537171 -51.90625 40.9765625 C-51.93460937 39.68492188 -51.96296875 38.39328125 -51.9921875 37.0625 C-51.31841193 32.00347324 -48.80842226 29.80969842 -45.21875 26.4140625 C-42.54431555 23.87230681 -42.54431555 23.87230681 -41.359375 21.37890625 C-36.53884222 12.61799414 -29.01010963 10.16846807 -20.1484375 6.609375 C-17.17221823 5.40658571 -15.35740286 4.45849816 -12.83984375 2.38671875 C-8.8811928 -0.67437006 -4.82772203 -0.111565 0 0 Z " fill="#020202" transform="translate(142.53125,87.3984375)"/>
<path d="M0 0 C0 1.32 0 2.64 0 4 C-1.11375 4.474375 -2.2275 4.94875 -3.375 5.4375 C-14.39204814 11.00462539 -21.91330659 20.48314262 -26 32 C-28.12785945 46.03731349 -27.1164532 60.77586008 -27.06866455 74.91656494 C-27.05829475 78.31611504 -27.05383814 81.7156729 -27.04882812 85.11523438 C-27.03789424 91.74350935 -27.02122942 98.37175042 -27 105 C-30.01348004 103.5728911 -31.70659712 102.46176655 -33.65625 99.734375 C-34.12160156 99.09113281 -34.58695313 98.44789063 -35.06640625 97.78515625 C-35.77603516 96.77775391 -35.77603516 96.77775391 -36.5 95.75 C-36.97308594 95.09386719 -37.44617187 94.43773437 -37.93359375 93.76171875 C-43.81040605 85.57325175 -47.59721134 79.22031741 -49 69 C-49.33 68.67 -49.66 68.34 -50 68 C-50.2641233 65.51430624 -50.46848925 63.05516385 -50.625 60.5625 C-50.6765625 59.86833984 -50.728125 59.17417969 -50.78125 58.45898438 C-51.12424481 53.24848963 -51.12424481 53.24848963 -50 51 C-49.8709851 49.08484545 -49.77098105 47.16767899 -49.6875 45.25 C-49.29869401 39.988577 -48.24773023 37.23189091 -45 33 C-44.67 31.80375 -44.34 30.6075 -44 29.375 C-42.90106743 25.66610259 -41.75374356 24.58685001 -39 22 C-38.566875 20.96875 -38.13375 19.9375 -37.6875 18.875 C-35.40093095 14.97936385 -33.23839479 15.13528432 -29 14 C-27.96210419 12.35666496 -26.96432076 10.68756133 -26 9 C-21.11140276 5.83606016 -16.31041225 3.89945065 -10.75 2.25 C-10.04359375 2.02957031 -9.3371875 1.80914062 -8.609375 1.58203125 C-5.63910775 0.67632476 -3.12232589 0 0 0 Z " fill="#060606" transform="translate(91,44)"/>
</svg>
